<mxfile host="Electron" modified="2023-12-05T08:58:45.625Z" agent="Mozilla/5.0 (Windows NT 10.0; Win64; x64) AppleWebKit/537.36 (KHTML, like Gecko) draw.io/22.1.2 Chrome/114.0.5735.289 Electron/25.9.4 Safari/537.36" etag="gkyvvMI485_1fWbhys8A" version="22.1.2" type="device">
  <diagram name="Side-1" id="1c3asvXU_3SjghgbwXYL">
    <mxGraphModel dx="1210" dy="473" grid="0" gridSize="10" guides="1" tooltips="1" connect="1" arrows="1" fold="1" page="0" pageScale="1" pageWidth="827" pageHeight="1169" math="0" shadow="0">
      <root>
        <mxCell id="0" />
        <mxCell id="1" parent="0" />
        <mxCell id="pF4pQNM7ES19bwcA_plz-24" style="edgeStyle=orthogonalEdgeStyle;rounded=0;orthogonalLoop=1;jettySize=auto;html=1;endArrow=none;endFill=0;dashed=1;" parent="1" source="pF4pQNM7ES19bwcA_plz-1" target="pF4pQNM7ES19bwcA_plz-6" edge="1">
          <mxGeometry relative="1" as="geometry">
            <Array as="points">
              <mxPoint x="115" y="240" />
              <mxPoint x="115" y="240" />
            </Array>
          </mxGeometry>
        </mxCell>
        <mxCell id="pF4pQNM7ES19bwcA_plz-1" value="Service" style="shape=umlActor;verticalLabelPosition=bottom;verticalAlign=top;html=1;outlineConnect=0;" parent="1" vertex="1">
          <mxGeometry x="100" y="90" width="30" height="60" as="geometry" />
        </mxCell>
        <mxCell id="pF4pQNM7ES19bwcA_plz-25" style="edgeStyle=orthogonalEdgeStyle;rounded=0;orthogonalLoop=1;jettySize=auto;html=1;dashed=1;endArrow=none;endFill=0;" parent="1" source="pF4pQNM7ES19bwcA_plz-3" target="pF4pQNM7ES19bwcA_plz-7" edge="1">
          <mxGeometry relative="1" as="geometry">
            <Array as="points">
              <mxPoint x="355" y="260" />
              <mxPoint x="355" y="260" />
            </Array>
          </mxGeometry>
        </mxCell>
        <mxCell id="pF4pQNM7ES19bwcA_plz-3" value="&amp;lt;&amp;lt;Actor&amp;gt;&amp;gt;&lt;br&gt;API" style="rounded=0;whiteSpace=wrap;html=1;fillColor=#d5e8d4;strokeColor=#82b366;" parent="1" vertex="1">
          <mxGeometry x="310" y="100" width="90" height="40" as="geometry" />
        </mxCell>
        <mxCell id="pF4pQNM7ES19bwcA_plz-31" style="edgeStyle=orthogonalEdgeStyle;rounded=0;orthogonalLoop=1;jettySize=auto;html=1;curved=0;endArrow=none;endFill=0;dashed=1;" parent="1" source="pF4pQNM7ES19bwcA_plz-6" target="pF4pQNM7ES19bwcA_plz-26" edge="1">
          <mxGeometry relative="1" as="geometry">
            <Array as="points">
              <mxPoint x="115" y="520" />
              <mxPoint x="115" y="520" />
            </Array>
          </mxGeometry>
        </mxCell>
        <mxCell id="pF4pQNM7ES19bwcA_plz-6" value="" style="html=1;points=[[0,0,0,0,5],[0,1,0,0,-5],[1,0,0,0,5],[1,1,0,0,-5]];perimeter=orthogonalPerimeter;outlineConnect=0;targetShapes=umlLifeline;portConstraint=eastwest;newEdgeStyle={&quot;curved&quot;:0,&quot;rounded&quot;:0};fillColor=#1ba1e2;strokeColor=#006EAF;fontColor=#ffffff;" parent="1" vertex="1">
          <mxGeometry x="110" y="210" width="10" height="220" as="geometry" />
        </mxCell>
        <mxCell id="pF4pQNM7ES19bwcA_plz-7" value="" style="html=1;points=[[0,0,0,0,5],[0,1,0,0,-5],[1,0,0,0,5],[1,1,0,0,-5]];perimeter=orthogonalPerimeter;outlineConnect=0;targetShapes=umlLifeline;portConstraint=eastwest;newEdgeStyle={&quot;curved&quot;:0,&quot;rounded&quot;:0};fillColor=#1ba1e2;strokeColor=#006EAF;fontColor=#ffffff;" parent="1" vertex="1">
          <mxGeometry x="350" y="240" width="10" height="190" as="geometry" />
        </mxCell>
        <mxCell id="pF4pQNM7ES19bwcA_plz-8" value="Service login" style="html=1;verticalAlign=bottom;endArrow=block;curved=0;rounded=0;" parent="1" source="pF4pQNM7ES19bwcA_plz-6" target="pF4pQNM7ES19bwcA_plz-7" edge="1">
          <mxGeometry width="80" relative="1" as="geometry">
            <mxPoint x="350" y="290" as="sourcePoint" />
            <mxPoint x="430" y="290" as="targetPoint" />
            <Array as="points">
              <mxPoint x="240" y="240" />
            </Array>
          </mxGeometry>
        </mxCell>
        <mxCell id="pF4pQNM7ES19bwcA_plz-9" value="alt" style="shape=umlFrame;whiteSpace=wrap;html=1;pointerEvents=0;" parent="1" vertex="1">
          <mxGeometry x="-180" y="290" width="550" height="90" as="geometry" />
        </mxCell>
        <mxCell id="pF4pQNM7ES19bwcA_plz-10" value="Service login failed" style="html=1;verticalAlign=bottom;endArrow=open;curved=0;rounded=0;dashed=1;endFill=0;" parent="1" source="pF4pQNM7ES19bwcA_plz-7" target="pF4pQNM7ES19bwcA_plz-6" edge="1">
          <mxGeometry width="80" relative="1" as="geometry">
            <mxPoint x="130" y="250" as="sourcePoint" />
            <mxPoint x="360" y="250" as="targetPoint" />
            <Array as="points">
              <mxPoint x="320" y="350" />
            </Array>
          </mxGeometry>
        </mxCell>
        <mxCell id="pF4pQNM7ES19bwcA_plz-12" value="" style="html=1;points=[[0,0,0,0,5],[0,1,0,0,-5],[1,0,0,0,5],[1,1,0,0,-5]];perimeter=orthogonalPerimeter;outlineConnect=0;targetShapes=umlLifeline;portConstraint=eastwest;newEdgeStyle={&quot;curved&quot;:0,&quot;rounded&quot;:0};fillColor=#1ba1e2;strokeColor=#006EAF;fontColor=#ffffff;" parent="1" vertex="1">
          <mxGeometry x="-110" y="210" width="10" height="150" as="geometry" />
        </mxCell>
        <mxCell id="pF4pQNM7ES19bwcA_plz-13" value="User starts service" style="html=1;verticalAlign=bottom;endArrow=block;curved=0;rounded=0;" parent="1" source="pF4pQNM7ES19bwcA_plz-12" target="pF4pQNM7ES19bwcA_plz-6" edge="1">
          <mxGeometry width="80" relative="1" as="geometry">
            <mxPoint x="130" y="250" as="sourcePoint" />
            <mxPoint x="360" y="250" as="targetPoint" />
            <Array as="points">
              <mxPoint x="-40" y="210" />
              <mxPoint x="40" y="210" />
            </Array>
          </mxGeometry>
        </mxCell>
        <mxCell id="pF4pQNM7ES19bwcA_plz-16" value="Write in errorlog&lt;br&gt;&amp;nbsp;and show message" style="html=1;verticalAlign=bottom;endArrow=open;curved=0;rounded=0;dashed=1;endFill=0;" parent="1" edge="1">
          <mxGeometry width="80" relative="1" as="geometry">
            <mxPoint x="110" y="350" as="sourcePoint" />
            <mxPoint x="-100" y="350" as="targetPoint" />
            <Array as="points">
              <mxPoint x="110" y="350" />
            </Array>
          </mxGeometry>
        </mxCell>
        <mxCell id="pF4pQNM7ES19bwcA_plz-18" value="Service login success" style="html=1;verticalAlign=bottom;endArrow=open;curved=0;rounded=0;dashed=1;endFill=0;" parent="1" edge="1">
          <mxGeometry width="80" relative="1" as="geometry">
            <mxPoint x="350" y="430" as="sourcePoint" />
            <mxPoint x="120" y="430" as="targetPoint" />
            <Array as="points">
              <mxPoint x="320" y="430" />
            </Array>
          </mxGeometry>
        </mxCell>
        <mxCell id="pF4pQNM7ES19bwcA_plz-21" style="edgeStyle=orthogonalEdgeStyle;rounded=0;orthogonalLoop=1;jettySize=auto;html=1;curved=0;dashed=1;endArrow=none;endFill=0;" parent="1" source="pF4pQNM7ES19bwcA_plz-12" target="pF4pQNM7ES19bwcA_plz-19" edge="1">
          <mxGeometry relative="1" as="geometry">
            <mxPoint x="190" y="574.5" as="targetPoint" />
            <mxPoint x="-100" y="400" as="sourcePoint" />
            <Array as="points">
              <mxPoint x="-105" y="470" />
              <mxPoint x="-105" y="470" />
            </Array>
          </mxGeometry>
        </mxCell>
        <mxCell id="pF4pQNM7ES19bwcA_plz-19" value="" style="html=1;points=[[0,0,0,0,5],[0,1,0,0,-5],[1,0,0,0,5],[1,1,0,0,-5]];perimeter=orthogonalPerimeter;outlineConnect=0;targetShapes=umlLifeline;portConstraint=eastwest;newEdgeStyle={&quot;curved&quot;:0,&quot;rounded&quot;:0};fillColor=#1ba1e2;strokeColor=#006EAF;fontColor=#ffffff;" parent="1" vertex="1">
          <mxGeometry x="-110" y="480" width="10" height="70" as="geometry" />
        </mxCell>
        <mxCell id="pF4pQNM7ES19bwcA_plz-23" style="edgeStyle=orthogonalEdgeStyle;rounded=0;orthogonalLoop=1;jettySize=auto;html=1;endArrow=none;endFill=0;dashed=1;" parent="1" source="pF4pQNM7ES19bwcA_plz-11" target="pF4pQNM7ES19bwcA_plz-12" edge="1">
          <mxGeometry relative="1" as="geometry">
            <Array as="points">
              <mxPoint x="-105" y="230" />
              <mxPoint x="-105" y="230" />
            </Array>
          </mxGeometry>
        </mxCell>
        <mxCell id="pF4pQNM7ES19bwcA_plz-11" value="Bruger" style="shape=umlActor;verticalLabelPosition=bottom;verticalAlign=top;html=1;outlineConnect=0;" parent="1" vertex="1">
          <mxGeometry x="-120" y="90" width="30" height="60" as="geometry" />
        </mxCell>
        <mxCell id="pF4pQNM7ES19bwcA_plz-26" value="" style="html=1;points=[[0,0,0,0,5],[0,1,0,0,-5],[1,0,0,0,5],[1,1,0,0,-5]];perimeter=orthogonalPerimeter;outlineConnect=0;targetShapes=umlLifeline;portConstraint=eastwest;newEdgeStyle={&quot;curved&quot;:0,&quot;rounded&quot;:0};fillColor=#1ba1e2;strokeColor=#006EAF;fontColor=#ffffff;" parent="1" vertex="1">
          <mxGeometry x="110" y="480" width="10" height="160" as="geometry" />
        </mxCell>
        <mxCell id="pF4pQNM7ES19bwcA_plz-27" value="" style="html=1;points=[[0,0,0,0,5],[0,1,0,0,-5],[1,0,0,0,5],[1,1,0,0,-5]];perimeter=orthogonalPerimeter;outlineConnect=0;targetShapes=umlLifeline;portConstraint=eastwest;newEdgeStyle={&quot;curved&quot;:0,&quot;rounded&quot;:0};fillColor=#1ba1e2;strokeColor=#006EAF;fontColor=#ffffff;" parent="1" vertex="1">
          <mxGeometry x="350" y="480" width="10" height="160" as="geometry" />
        </mxCell>
        <mxCell id="pF4pQNM7ES19bwcA_plz-30" style="edgeStyle=orthogonalEdgeStyle;rounded=0;orthogonalLoop=1;jettySize=auto;html=1;curved=0;entryX=0.507;entryY=0.004;entryDx=0;entryDy=0;entryPerimeter=0;endArrow=none;endFill=0;dashed=1;" parent="1" source="pF4pQNM7ES19bwcA_plz-7" target="pF4pQNM7ES19bwcA_plz-27" edge="1">
          <mxGeometry relative="1" as="geometry">
            <Array as="points">
              <mxPoint x="355" y="400" />
              <mxPoint x="355" y="400" />
            </Array>
          </mxGeometry>
        </mxCell>
        <mxCell id="pF4pQNM7ES19bwcA_plz-32" value="User adds file to folder" style="html=1;verticalAlign=bottom;endArrow=block;curved=0;rounded=0;" parent="1" edge="1">
          <mxGeometry x="-0.0476" width="80" relative="1" as="geometry">
            <mxPoint x="-100" y="480" as="sourcePoint" />
            <mxPoint x="110" y="480" as="targetPoint" />
            <Array as="points">
              <mxPoint x="-40" y="480" />
              <mxPoint x="40" y="480" />
            </Array>
            <mxPoint as="offset" />
          </mxGeometry>
        </mxCell>
        <mxCell id="pF4pQNM7ES19bwcA_plz-33" value="Service sends data&amp;nbsp;" style="html=1;verticalAlign=bottom;endArrow=block;curved=0;rounded=0;" parent="1" source="pF4pQNM7ES19bwcA_plz-26" edge="1">
          <mxGeometry x="-0.0476" width="80" relative="1" as="geometry">
            <mxPoint x="140" y="480" as="sourcePoint" />
            <mxPoint x="350" y="480" as="targetPoint" />
            <Array as="points">
              <mxPoint x="200" y="480" />
              <mxPoint x="280" y="480" />
            </Array>
            <mxPoint as="offset" />
          </mxGeometry>
        </mxCell>
        <mxCell id="pF4pQNM7ES19bwcA_plz-35" value="Failed to create entity" style="html=1;verticalAlign=bottom;endArrow=open;dashed=1;endSize=8;curved=0;rounded=0;" parent="1" edge="1">
          <mxGeometry relative="1" as="geometry">
            <mxPoint x="350" y="540" as="sourcePoint" />
            <mxPoint x="120.00000000000023" y="540" as="targetPoint" />
          </mxGeometry>
        </mxCell>
        <mxCell id="pF4pQNM7ES19bwcA_plz-36" value="alt" style="shape=umlFrame;whiteSpace=wrap;html=1;pointerEvents=0;" parent="1" vertex="1">
          <mxGeometry x="-180" y="500" width="550" height="90" as="geometry" />
        </mxCell>
        <mxCell id="pF4pQNM7ES19bwcA_plz-37" value="Service writes error in log" style="html=1;verticalAlign=bottom;endArrow=open;dashed=1;endSize=8;curved=0;rounded=0;" parent="1" edge="1">
          <mxGeometry relative="1" as="geometry">
            <mxPoint x="110.00000000000023" y="540" as="sourcePoint" />
            <mxPoint x="-100" y="540" as="targetPoint" />
          </mxGeometry>
        </mxCell>
        <mxCell id="pF4pQNM7ES19bwcA_plz-38" value="Succes creating entity" style="html=1;verticalAlign=bottom;endArrow=open;dashed=1;endSize=8;curved=0;rounded=0;" parent="1" edge="1">
          <mxGeometry relative="1" as="geometry">
            <mxPoint x="350" y="630" as="sourcePoint" />
            <mxPoint x="120.00000000000023" y="630" as="targetPoint" />
          </mxGeometry>
        </mxCell>
        <mxCell id="pF4pQNM7ES19bwcA_plz-39" value="" style="html=1;points=[[0,0,0,0,5],[0,1,0,0,-5],[1,0,0,0,5],[1,1,0,0,-5]];perimeter=orthogonalPerimeter;outlineConnect=0;targetShapes=umlLifeline;portConstraint=eastwest;newEdgeStyle={&quot;curved&quot;:0,&quot;rounded&quot;:0};fillColor=#1ba1e2;strokeColor=#006EAF;fontColor=#ffffff;" parent="1" vertex="1">
          <mxGeometry x="110" y="670" width="10" height="160" as="geometry" />
        </mxCell>
        <mxCell id="pF4pQNM7ES19bwcA_plz-40" style="edgeStyle=orthogonalEdgeStyle;rounded=0;orthogonalLoop=1;jettySize=auto;html=1;curved=0;endArrow=none;endFill=0;dashed=1;" parent="1" source="pF4pQNM7ES19bwcA_plz-26" target="pF4pQNM7ES19bwcA_plz-39" edge="1">
          <mxGeometry relative="1" as="geometry">
            <mxPoint x="125" y="440" as="sourcePoint" />
            <mxPoint x="125" y="490" as="targetPoint" />
            <Array as="points">
              <mxPoint x="115" y="620" />
              <mxPoint x="115" y="620" />
            </Array>
          </mxGeometry>
        </mxCell>
        <mxCell id="pF4pQNM7ES19bwcA_plz-41" value="Service create production" style="html=1;verticalAlign=bottom;endArrow=block;curved=0;rounded=0;" parent="1" edge="1">
          <mxGeometry x="-0.0476" width="80" relative="1" as="geometry">
            <mxPoint x="120" y="680" as="sourcePoint" />
            <mxPoint x="350" y="680" as="targetPoint" />
            <Array as="points">
              <mxPoint x="200" y="680" />
              <mxPoint x="280" y="680" />
            </Array>
            <mxPoint as="offset" />
          </mxGeometry>
        </mxCell>
        <mxCell id="pF4pQNM7ES19bwcA_plz-42" value="" style="html=1;points=[[0,0,0,0,5],[0,1,0,0,-5],[1,0,0,0,5],[1,1,0,0,-5]];perimeter=orthogonalPerimeter;outlineConnect=0;targetShapes=umlLifeline;portConstraint=eastwest;newEdgeStyle={&quot;curved&quot;:0,&quot;rounded&quot;:0};fillColor=#1ba1e2;strokeColor=#006EAF;fontColor=#ffffff;" parent="1" vertex="1">
          <mxGeometry x="350" y="670" width="10" height="160" as="geometry" />
        </mxCell>
        <mxCell id="pF4pQNM7ES19bwcA_plz-43" style="edgeStyle=orthogonalEdgeStyle;rounded=0;orthogonalLoop=1;jettySize=auto;html=1;curved=0;endArrow=none;endFill=0;dashed=1;" parent="1" source="pF4pQNM7ES19bwcA_plz-27" target="pF4pQNM7ES19bwcA_plz-42" edge="1">
          <mxGeometry relative="1" as="geometry">
            <mxPoint x="125" y="650" as="sourcePoint" />
            <mxPoint x="125" y="680" as="targetPoint" />
            <Array as="points">
              <mxPoint x="355" y="660" />
              <mxPoint x="355" y="660" />
            </Array>
          </mxGeometry>
        </mxCell>
        <mxCell id="pF4pQNM7ES19bwcA_plz-44" value="Error in data for production" style="html=1;verticalAlign=bottom;endArrow=open;dashed=1;endSize=8;curved=0;rounded=0;" parent="1" source="pF4pQNM7ES19bwcA_plz-42" target="pF4pQNM7ES19bwcA_plz-39" edge="1">
          <mxGeometry relative="1" as="geometry">
            <mxPoint x="350" y="740" as="sourcePoint" />
            <mxPoint x="120.00000000000023" y="740" as="targetPoint" />
          </mxGeometry>
        </mxCell>
        <mxCell id="pF4pQNM7ES19bwcA_plz-45" value="alt" style="shape=umlFrame;whiteSpace=wrap;html=1;pointerEvents=0;" parent="1" vertex="1">
          <mxGeometry x="-180" y="690" width="550" height="100" as="geometry" />
        </mxCell>
        <mxCell id="pF4pQNM7ES19bwcA_plz-46" value="Production creation success" style="html=1;verticalAlign=bottom;endArrow=open;dashed=1;endSize=8;curved=0;rounded=0;" parent="1" edge="1">
          <mxGeometry relative="1" as="geometry">
            <mxPoint x="350" y="820" as="sourcePoint" />
            <mxPoint x="120.00000000000023" y="820" as="targetPoint" />
          </mxGeometry>
        </mxCell>
        <mxCell id="pF4pQNM7ES19bwcA_plz-66" style="edgeStyle=orthogonalEdgeStyle;rounded=0;orthogonalLoop=1;jettySize=auto;html=1;curved=0;strokeColor=#121212;fontColor=#FFFFFF;dashed=1;endArrow=none;endFill=0;" parent="1" source="pF4pQNM7ES19bwcA_plz-47" target="pF4pQNM7ES19bwcA_plz-64" edge="1">
          <mxGeometry relative="1" as="geometry">
            <Array as="points">
              <mxPoint x="-105" y="800" />
              <mxPoint x="-105" y="800" />
            </Array>
          </mxGeometry>
        </mxCell>
        <mxCell id="pF4pQNM7ES19bwcA_plz-47" value="" style="html=1;points=[[0,0,0,0,5],[0,1,0,0,-5],[1,0,0,0,5],[1,1,0,0,-5]];perimeter=orthogonalPerimeter;outlineConnect=0;targetShapes=umlLifeline;portConstraint=eastwest;newEdgeStyle={&quot;curved&quot;:0,&quot;rounded&quot;:0};fillColor=#1ba1e2;strokeColor=#006EAF;fontColor=#ffffff;" parent="1" vertex="1">
          <mxGeometry x="-110" y="730" width="10" height="40" as="geometry" />
        </mxCell>
        <mxCell id="pF4pQNM7ES19bwcA_plz-48" style="edgeStyle=orthogonalEdgeStyle;rounded=0;orthogonalLoop=1;jettySize=auto;html=1;curved=0;dashed=1;endArrow=none;endFill=0;" parent="1" source="pF4pQNM7ES19bwcA_plz-19" target="pF4pQNM7ES19bwcA_plz-47" edge="1">
          <mxGeometry relative="1" as="geometry">
            <mxPoint x="-95" y="490" as="targetPoint" />
            <mxPoint x="-95" y="370" as="sourcePoint" />
            <Array as="points">
              <mxPoint x="-105" y="630" />
              <mxPoint x="-105" y="630" />
            </Array>
          </mxGeometry>
        </mxCell>
        <mxCell id="pF4pQNM7ES19bwcA_plz-49" value="Service writes error to log" style="html=1;verticalAlign=bottom;endArrow=open;dashed=1;endSize=8;curved=0;rounded=0;" parent="1" source="pF4pQNM7ES19bwcA_plz-39" target="pF4pQNM7ES19bwcA_plz-47" edge="1">
          <mxGeometry relative="1" as="geometry">
            <mxPoint x="90" y="750" as="sourcePoint" />
            <mxPoint x="-70" y="750" as="targetPoint" />
          </mxGeometry>
        </mxCell>
        <mxCell id="pF4pQNM7ES19bwcA_plz-58" value="" style="html=1;points=[[0,0,0,0,5],[0,1,0,0,-5],[1,0,0,0,5],[1,1,0,0,-5]];perimeter=orthogonalPerimeter;outlineConnect=0;targetShapes=umlLifeline;portConstraint=eastwest;newEdgeStyle={&quot;curved&quot;:0,&quot;rounded&quot;:0};fillColor=#1ba1e2;strokeColor=#006EAF;fontColor=#ffffff;" parent="1" vertex="1">
          <mxGeometry x="110" y="880" width="10" height="160" as="geometry" />
        </mxCell>
        <mxCell id="pF4pQNM7ES19bwcA_plz-59" value="Service report&lt;br&gt;&amp;nbsp;production as finished" style="html=1;verticalAlign=bottom;endArrow=block;curved=0;rounded=0;" parent="1" edge="1">
          <mxGeometry x="-0.0476" width="80" relative="1" as="geometry">
            <mxPoint x="120" y="890" as="sourcePoint" />
            <mxPoint x="350" y="890" as="targetPoint" />
            <Array as="points">
              <mxPoint x="200" y="890" />
              <mxPoint x="280" y="890" />
            </Array>
            <mxPoint as="offset" />
          </mxGeometry>
        </mxCell>
        <mxCell id="pF4pQNM7ES19bwcA_plz-60" value="" style="html=1;points=[[0,0,0,0,5],[0,1,0,0,-5],[1,0,0,0,5],[1,1,0,0,-5]];perimeter=orthogonalPerimeter;outlineConnect=0;targetShapes=umlLifeline;portConstraint=eastwest;newEdgeStyle={&quot;curved&quot;:0,&quot;rounded&quot;:0};fillColor=#1ba1e2;strokeColor=#006EAF;fontColor=#ffffff;" parent="1" vertex="1">
          <mxGeometry x="350" y="880" width="10" height="160" as="geometry" />
        </mxCell>
        <mxCell id="pF4pQNM7ES19bwcA_plz-61" value="Error while trying to&lt;br&gt;&amp;nbsp;post the production" style="html=1;verticalAlign=bottom;endArrow=open;dashed=1;endSize=8;curved=0;rounded=0;" parent="1" source="pF4pQNM7ES19bwcA_plz-60" target="pF4pQNM7ES19bwcA_plz-58" edge="1">
          <mxGeometry relative="1" as="geometry">
            <mxPoint x="350" y="950" as="sourcePoint" />
            <mxPoint x="120.00000000000023" y="950" as="targetPoint" />
          </mxGeometry>
        </mxCell>
        <mxCell id="pF4pQNM7ES19bwcA_plz-62" value="alt" style="shape=umlFrame;whiteSpace=wrap;html=1;pointerEvents=0;" parent="1" vertex="1">
          <mxGeometry x="-180" y="900" width="550" height="100" as="geometry" />
        </mxCell>
        <mxCell id="pF4pQNM7ES19bwcA_plz-63" value="Production post success" style="html=1;verticalAlign=bottom;endArrow=open;dashed=1;endSize=8;curved=0;rounded=0;" parent="1" edge="1">
          <mxGeometry relative="1" as="geometry">
            <mxPoint x="350" y="1030" as="sourcePoint" />
            <mxPoint x="120.00000000000023" y="1030" as="targetPoint" />
          </mxGeometry>
        </mxCell>
        <mxCell id="pF4pQNM7ES19bwcA_plz-64" value="" style="html=1;points=[[0,0,0,0,5],[0,1,0,0,-5],[1,0,0,0,5],[1,1,0,0,-5]];perimeter=orthogonalPerimeter;outlineConnect=0;targetShapes=umlLifeline;portConstraint=eastwest;newEdgeStyle={&quot;curved&quot;:0,&quot;rounded&quot;:0};fillColor=#1ba1e2;strokeColor=#006EAF;fontColor=#ffffff;" parent="1" vertex="1">
          <mxGeometry x="-110" y="940" width="10" height="40" as="geometry" />
        </mxCell>
        <mxCell id="pF4pQNM7ES19bwcA_plz-65" value="Service writes error to log" style="html=1;verticalAlign=bottom;endArrow=open;dashed=1;endSize=8;curved=0;rounded=0;" parent="1" source="pF4pQNM7ES19bwcA_plz-58" target="pF4pQNM7ES19bwcA_plz-64" edge="1">
          <mxGeometry relative="1" as="geometry">
            <mxPoint x="90" y="960" as="sourcePoint" />
            <mxPoint x="-70" y="960" as="targetPoint" />
          </mxGeometry>
        </mxCell>
        <mxCell id="pF4pQNM7ES19bwcA_plz-67" style="edgeStyle=orthogonalEdgeStyle;rounded=0;orthogonalLoop=1;jettySize=auto;html=1;curved=0;strokeColor=#121212;fontColor=#FFFFFF;dashed=1;endArrow=none;endFill=0;" parent="1" source="pF4pQNM7ES19bwcA_plz-39" target="pF4pQNM7ES19bwcA_plz-58" edge="1">
          <mxGeometry relative="1" as="geometry">
            <mxPoint x="-95" y="780" as="sourcePoint" />
            <mxPoint x="-95" y="950" as="targetPoint" />
            <Array as="points">
              <mxPoint x="120" y="890" />
              <mxPoint x="120" y="890" />
            </Array>
          </mxGeometry>
        </mxCell>
        <mxCell id="pF4pQNM7ES19bwcA_plz-68" style="edgeStyle=orthogonalEdgeStyle;rounded=0;orthogonalLoop=1;jettySize=auto;html=1;curved=0;strokeColor=#121212;fontColor=#FFFFFF;dashed=1;endArrow=none;endFill=0;" parent="1" source="pF4pQNM7ES19bwcA_plz-42" target="pF4pQNM7ES19bwcA_plz-60" edge="1">
          <mxGeometry relative="1" as="geometry">
            <mxPoint x="125" y="840" as="sourcePoint" />
            <mxPoint x="125" y="890" as="targetPoint" />
            <Array as="points">
              <mxPoint x="360" y="930" />
              <mxPoint x="360" y="930" />
            </Array>
          </mxGeometry>
        </mxCell>
      </root>
    </mxGraphModel>
  </diagram>
</mxfile>
